<?xml version="1.0" encoding="UTF-8"?>
<svg width="20px" height="24px" viewBox="0 0 20 24" version="1.1" xmlns="http://www.w3.org/2000/svg" xmlns:xlink="http://www.w3.org/1999/xlink">
    <!-- Generator: sketchtool 41 (35326) - http://www.bohemiancoding.com/sketch -->
    <title>AA691E63-84F9-4F90-B038-0A20F4055D9F</title>
    <desc>Created with sketchtool.</desc>
    <defs></defs>
    <g id="Page-1" stroke="none" stroke-width="1" fill="none" fill-rule="evenodd" stroke-linejoin="round">
        <g id="read_page-1.0" transform="translate(-439.000000, -7.000000)" stroke="#FFFFFF" stroke-width="2">
            <path d="M444.539934,15.7827736 L440.648562,15.7827736 C440.289907,15.7827736 440,15.4922178 440,15.1342116 L440,11.2428399 C440,9.81016649 441.161574,8.64859202 442.594248,8.64859202 L454.916925,8.64859202 C456.349598,8.64859202 457.511173,9.81016649 457.511173,11.2428399 L457.511173,29.3500413 C457.511173,29.8941847 456.882068,30.1964146 456.45726,29.8565682 L451.430905,25.835484 C451.194179,25.6461039 450.856927,25.6461039 450.620202,25.835484 L445.593847,29.8565682 C445.169039,30.1964146 444.539934,29.8941847 444.539934,29.3500413 L444.539934,10.5942779 C444.539934,9.51961073 443.668915,8.64859202 442.594248,8.64859202" id="bookmark"></path>
        </g>
    </g>
</svg>