<?xml version="1.0" encoding="UTF-8"?>
<svg width="32px" height="21px" viewBox="0 0 32 21" version="1.1" xmlns="http://www.w3.org/2000/svg" xmlns:xlink="http://www.w3.org/1999/xlink">
    <!-- Generator: sketchtool 41 (35326) - http://www.bohemiancoding.com/sketch -->
    <title>C032C35A-F7AD-4ADC-817D-2339ECFA6341</title>
    <desc>Created with sketchtool.</desc>
    <defs></defs>
    <g id="Page-1" stroke="none" stroke-width="1" fill="none" fill-rule="evenodd">
        <g id="read_page-1.0" transform="translate(-749.000000, -8.000000)" fill="#FFFFFF">
            <path d="M749,24.0473738 C749,23.4344418 749.114923,22.8874933 749.344773,22.4065119 C749.574622,21.9255305 749.889596,21.5020178 750.289705,21.1359612 C750.689813,20.7699046 751.160146,20.4591867 751.700718,20.2037984 C752.24129,19.94841 752.824418,19.739846 753.45012,19.5781001 C754.075821,19.4163541 754.727052,19.2971747 755.403831,19.2205582 C756.08061,19.1439417 756.750994,19.0971212 757.415004,19.0800953 L757.415004,18.4033195 C757.415004,17.8074134 757.37244,17.303029 757.28731,16.8901511 C757.202181,16.4772733 757.055335,16.141017 756.846768,15.8813722 C756.638201,15.6217274 756.359406,15.4344454 756.010375,15.3195207 C755.661344,15.2045959 755.218678,15.1471344 754.682362,15.1471344 C754.222663,15.1471344 753.762971,15.1896985 753.303272,15.2748279 C752.843573,15.3599574 752.403035,15.4642394 751.981644,15.5876771 C751.560253,15.7111148 751.17292,15.8430634 750.819633,15.983527 C750.466346,16.1239906 750.170525,16.2538111 749.932163,16.3729923 L749.919393,16.3729923 L749.344773,15.1471344 C749.506518,14.9939014 749.791698,14.7981066 750.200319,14.5597441 C750.608941,14.3213817 751.092043,14.0915356 751.649641,13.870199 C752.207239,13.6488625 752.807392,13.4573241 753.45012,13.2955781 C754.092847,13.1338322 754.733437,13.0529604 755.371907,13.0529604 C756.265767,13.0529604 757.021279,13.1444732 757.638468,13.3275015 C758.255656,13.5105298 758.755784,13.804222 759.138867,14.2085869 C759.521949,14.6129518 759.796488,15.13649 759.96249,15.7792174 C760.128492,16.4219447 760.211492,17.2072521 760.211492,18.1351631 L760.211492,26.4607816 L761.794892,26.4607816 L761.794892,27.6994089 C761.633146,27.7419736 761.43948,27.7909223 761.213887,27.8462565 C760.988294,27.9015906 760.752063,27.9526675 760.505188,27.9994887 C760.258312,28.0463099 760.007184,28.0867458 759.751796,28.1207976 C759.496407,28.1548494 759.253792,28.171875 759.023943,28.171875 C758.78558,28.171875 758.579144,28.161234 758.404629,28.1399516 C758.230114,28.1186693 758.087524,28.0633359 757.976856,27.97395 C757.866187,27.8845641 757.783187,27.7504872 757.727853,27.5717154 C757.672519,27.3929435 757.644852,27.1503282 757.644852,26.8438622 L757.644852,26.3713961 C757.534184,26.4735515 757.353287,26.624654 757.102155,26.8247082 C756.851023,27.0247624 756.542433,27.2248136 756.176377,27.4248678 C755.81032,27.624922 755.393192,27.7994348 754.92498,27.9484113 C754.456768,28.0973878 753.954512,28.171875 753.418196,28.171875 C752.830803,28.171875 752.271085,28.0931314 751.739026,27.935642 C751.206967,27.7781525 750.738762,27.533409 750.334397,27.2014041 C749.930033,26.8693993 749.606546,26.4416302 749.363927,25.9180841 C749.121308,25.394538 749,24.7709741 749,24.0473738 Z M754.516361,26.2181639 C754.695133,26.2181639 754.907953,26.1947537 755.154828,26.1479325 C755.401704,26.1011113 755.657088,26.0351369 755.92099,25.9500075 C756.184891,25.864878 756.44666,25.7584678 756.706305,25.6307736 C756.96595,25.5030795 757.20218,25.362618 757.415004,25.209385 L757.415004,20.5102629 C756.393451,20.5102629 755.540041,20.5996475 754.854749,20.7784193 C754.169457,20.9571911 753.622508,21.1934218 753.213887,21.4871184 C752.805265,21.780815 752.51583,22.1149431 752.345571,22.4895127 C752.175312,22.8640822 752.090184,23.2556718 752.090184,23.6642932 C752.090184,24.1325052 752.151901,24.5283512 752.275339,24.8518431 C752.398777,25.175335 752.569033,25.4392323 752.786113,25.643543 C753.003193,25.8478537 753.260706,25.9946998 753.558659,26.0840857 C753.856612,26.1734716 754.175843,26.2181639 754.516361,26.2181639 Z M762.050279,27.8781799 L762.03751,26.473551 L763.684757,26.1160091 L770.158819,8.27722217 L773.057462,8.27722217 L779.365523,26.1287784 L781,26.473551 L781,27.8781799 L774.07901,27.8781799 L774.07901,26.473551 L776.160415,26.1160091 L774.960096,22.4001272 L767.349561,22.4001272 L766.149242,26.1160091 L768.307263,26.473551 L768.307263,27.8781799 L762.050279,27.8781799 Z M770.618516,12.3251072 L767.885874,20.7784193 L774.423783,20.7784193 L771.703911,12.3251072 L771.167598,10.256472 L770.618516,12.3251072 Z" id="big_font"></path>
        </g>
    </g>
</svg>