<?xml version="1.0" encoding="UTF-8"?>
<svg width="20px" height="13px" viewBox="0 0 20 13" version="1.1" xmlns="http://www.w3.org/2000/svg" xmlns:xlink="http://www.w3.org/1999/xlink">
    <!-- Generator: sketchtool 41 (35326) - http://www.bohemiancoding.com/sketch -->
    <title>491ED18F-DAD9-4A51-B10E-AE27A1E115C5</title>
    <desc>Created with sketchtool.</desc>
    <defs></defs>
    <g id="Page-1" stroke="none" stroke-width="1" fill="none" fill-rule="evenodd">
        <g id="read_page-1.0" transform="translate(-721.000000, -16.000000)" fill="#FFFFFF">
            <path d="M721,25.6484375 C721,25.2734356 721.070312,24.9388036 721.210938,24.6445312 C721.351563,24.3502589 721.54427,24.091147 721.789062,23.8671875 C722.033855,23.643228 722.321613,23.4531258 722.652344,23.296875 C722.983075,23.1406242 723.339842,23.0130213 723.722656,22.9140625 C724.105471,22.8151037 724.503904,22.7421877 724.917969,22.6953125 C725.332033,22.6484373 725.742185,22.6197917 726.148438,22.609375 L726.148438,22.1953125 C726.148438,21.8307273 726.122396,21.5221367 726.070312,21.2695312 C726.018229,21.0169258 725.928386,20.8111987 725.800781,20.6523438 C725.673176,20.4934888 725.502605,20.3789066 725.289062,20.3085938 C725.07552,20.2382809 724.804689,20.203125 724.476562,20.203125 C724.195311,20.203125 723.914064,20.2291664 723.632812,20.28125 C723.351561,20.3333336 723.082033,20.397135 722.824219,20.4726562 C722.566405,20.5481775 722.329428,20.6289058 722.113281,20.7148438 C721.897134,20.8007817 721.716147,20.880208 721.570312,20.953125 L721.5625,20.953125 L721.210938,20.203125 C721.309896,20.1093745 721.484374,19.9895841 721.734375,19.84375 C721.984376,19.6979159 722.279946,19.5572923 722.621094,19.421875 C722.962241,19.2864577 723.329425,19.1692713 723.722656,19.0703125 C724.115887,18.9713537 724.507811,18.921875 724.898438,18.921875 C725.445315,18.921875 725.90755,18.977864 726.285156,19.0898438 C726.662762,19.2018235 726.968749,19.3815092 727.203125,19.6289062 C727.437501,19.8763033 727.605468,20.1966126 727.707031,20.5898438 C727.808594,20.9830749 727.859375,21.4635388 727.859375,22.03125 L727.859375,27.125 L728.828125,27.125 L728.828125,27.8828125 C728.729166,27.9088543 728.610678,27.9388019 728.472656,27.9726562 C728.334635,28.0065106 728.190105,28.0377603 728.039062,28.0664062 C727.88802,28.0950522 727.734376,28.1197916 727.578125,28.140625 C727.421874,28.1614584 727.273438,28.171875 727.132812,28.171875 C726.986978,28.171875 726.860678,28.1653646 726.753906,28.1523438 C726.647135,28.1393229 726.559896,28.105469 726.492188,28.0507812 C726.424479,27.9960935 726.373698,27.914063 726.339844,27.8046875 C726.305989,27.695312 726.289062,27.5468759 726.289062,27.359375 L726.289062,27.0703125 C726.221354,27.1328128 726.110678,27.2252598 725.957031,27.3476562 C725.803385,27.4700527 725.614584,27.5924473 725.390625,27.7148438 C725.166666,27.8372402 724.91146,27.94401 724.625,28.0351562 C724.33854,28.1263025 724.031252,28.171875 723.703125,28.171875 C723.343748,28.171875 723.001304,28.1236984 722.675781,28.0273438 C722.350259,27.9309891 722.063803,27.781251 721.816406,27.578125 C721.569009,27.374999 721.371094,27.1132829 721.222656,26.7929688 C721.074218,26.4726546 721,26.091148 721,25.6484375 Z M724.375,26.9765625 C724.484376,26.9765625 724.614583,26.9622397 724.765625,26.9335938 C724.916667,26.9049478 725.072916,26.8645836 725.234375,26.8125 C725.395834,26.7604164 725.555989,26.6953129 725.714844,26.6171875 C725.873699,26.5390621 726.018229,26.4531255 726.148438,26.359375 L726.148438,23.484375 C725.523434,23.484375 725.001304,23.539062 724.582031,23.6484375 C724.162758,23.757813 723.828126,23.9023429 723.578125,24.0820312 C723.328124,24.2617196 723.151042,24.4661447 723.046875,24.6953125 C722.942708,24.9244803 722.890625,25.1640613 722.890625,25.4140625 C722.890625,25.7005223 722.928385,25.9427073 723.003906,26.140625 C723.079427,26.3385427 723.183593,26.4999994 723.316406,26.625 C723.449219,26.7500006 723.60677,26.8398435 723.789062,26.8945312 C723.971355,26.949219 724.166666,26.9765625 724.375,26.9765625 Z M728.984375,27.9921875 L728.976562,27.1328125 L729.984375,26.9140625 L733.945312,16 L735.71875,16 L739.578125,26.921875 L740.578125,27.1328125 L740.578125,27.9921875 L736.34375,27.9921875 L736.34375,27.1328125 L737.617188,26.9140625 L736.882812,24.640625 L732.226562,24.640625 L731.492188,26.9140625 L732.8125,27.1328125 L732.8125,27.9921875 L728.984375,27.9921875 Z M734.226562,18.4765625 L732.554688,23.6484375 L736.554688,23.6484375 L734.890625,18.4765625 L734.5625,17.2109375 L734.226562,18.4765625 Z" id="smal_font"></path>
        </g>
    </g>
</svg>