<?xml version="1.0" encoding="UTF-8"?>
<svg width="30px" height="24px" viewBox="0 0 30 24" version="1.1" xmlns="http://www.w3.org/2000/svg" xmlns:xlink="http://www.w3.org/1999/xlink">
    <!-- Generator: sketchtool 41 (35326) - http://www.bohemiancoding.com/sketch -->
    <title>1715FE8D-019A-44C9-85BC-085BA43CF93B</title>
    <desc>Created with sketchtool.</desc>
    <defs></defs>
    <g id="Page-1" stroke="none" stroke-width="1" fill="none" fill-rule="evenodd">
        <g id="read_page-1.0" transform="translate(-1012.000000, -7.000000)" stroke="#FFFFFF" stroke-width="2">
            <g id="vobro_on" transform="translate(1013.000000, 8.000000)">
                <path d="M17.9329543,21.6857771 L10.3900971,21.6857771 C9.00158286,21.6857771 7.87581143,20.5600057 7.87581143,19.1714914 L7.87581143,2.82863429 C7.87581143,1.44012 9.00158286,0.314348571 10.3900971,0.314348571 L17.9329543,0.314348571 C19.3214686,0.314348571 20.44724,1.44012 20.44724,2.82863429 L20.44724,19.1714914 C20.44724,20.5600057 19.3214686,21.6857771 17.9329543,21.6857771 Z" id="Stroke-1" stroke-linejoin="round"></path>
                <path d="M14.7900971,19.1714914 C14.7900971,19.5184629 14.5091257,19.8000629 14.1615257,19.8000629 C13.8139257,19.8000629 13.5329543,19.5184629 13.5329543,19.1714914 C13.5329543,18.82452 13.8139257,18.54292 14.1615257,18.54292 C14.5091257,18.54292 14.7900971,18.82452 14.7900971,19.1714914 Z" id="Stroke-3" stroke-linejoin="round"></path>
                <path d="M12.9043829,2 L15.4186686,2" id="Stroke-5" stroke-linecap="round" stroke-linejoin="round"></path>
                <path d="M22.3145371,5.98437714 L22.3145371,5.98437714 C24.8269371,8.85632 24.8269371,13.1438057 22.3145371,16.0157486" id="Stroke-7" stroke-linecap="round"></path>
                <path d="M24.8220971,2.84950286 L24.8220971,2.84950286 C29.07124,7.45253143 29.07124,14.5472171 24.8220971,19.1502457" id="Stroke-9" stroke-linecap="round"></path>
                <path d="M6.00851429,16.0157486 L6.00851429,16.0157486 C3.49611429,13.1438057 3.49611429,8.85569143 6.00851429,5.98437714" id="Stroke-11" stroke-linecap="round"></path>
                <path d="M3.50095429,19.1503086 L3.50095429,19.1503086 C-0.748188571,14.54728 -0.748188571,7.45259429 3.50095429,2.84956571" id="Stroke-13" stroke-linecap="round"></path>
            </g>
        </g>
    </g>
</svg>