<?xml version="1.0" encoding="UTF-8"?>
<svg width="23px" height="24px" viewBox="0 0 23 24" version="1.1" xmlns="http://www.w3.org/2000/svg" xmlns:xlink="http://www.w3.org/1999/xlink">
    <!-- Generator: sketchtool 41 (35326) - http://www.bohemiancoding.com/sketch -->
    <title>F785761C-7B41-4F66-A9F1-3728AC4F6E76</title>
    <desc>Created with sketchtool.</desc>
    <defs></defs>
    <g id="Page-1" stroke="none" stroke-width="1" fill="none" fill-rule="evenodd">
        <g id="read_page-1.0" transform="translate(-955.000000, -7.000000)" stroke="#FFFFFF" stroke-width="2">
            <g id="volume_up" transform="translate(956.000000, 8.000000)">
                <path d="M12.5203126,0.964937931 L12.5203126,21.1590529 C12.5203126,21.7171218 11.8560368,22.0093517 11.4440828,21.6321563 L5.18495632,15.8944092 C4.94743908,15.676846 4.63718621,15.5558345 4.31534713,15.5558345 L2.2530023,15.5558345 C1.18642759,15.5558345 0.321967816,14.6913747 0.321967816,13.6248 L0.321967816,8.4991908 C0.321967816,7.43261609 1.18642759,6.56815632 2.2530023,6.56815632 L4.31534713,6.56815632 C4.63718621,6.56815632 4.94743908,6.44714483 5.18495632,6.22958161 L11.4440828,0.491834483 C11.8560368,0.11463908 12.5203126,0.406225287 12.5203126,0.964937931 Z" id="Stroke-1" stroke-linejoin="round"></path>
                <path d="M15.0880736,5.92576552 L15.0880736,5.92576552 C17.6614989,8.86673103 17.6614989,13.2572598 15.0880736,16.1982253" id="Stroke-3" stroke-linecap="round"></path>
                <path d="M17.6565425,2.71554943 L17.6565425,2.71554943 C22.0071632,7.4292046 22.0071632,14.6944 17.6565425,19.4080552" id="Stroke-5" stroke-linecap="round"></path>
            </g>
        </g>
    </g>
</svg>