<svg width="14" height="22" viewBox="0 0 14 22" version="1.1" xmlns="http://www.w3.org/2000/svg" xmlns:xlink="http://www.w3.org/1999/xlink" xmlns:figma="http://www.figma.com/figma/ns">
<title>Vector 4</title>
<desc>Created using Figma</desc>
<g id="Canvas" transform="translate(-4056 -601)" figma:type="canvas">
<rect x="4056" y="601" width="14" height="22" fill="#E5E5E5"/>
<mask id="mask0_alpha" mask-type="alpha">
<path d="M 2855 -366L 4295 -366L 4295 658L 2855 658L 2855 -366Z" fill="#FFFFFF"/>
</mask>
<g id="mainpage" mask="url(#mask0_alpha)" figma:type="frame">
<path d="M 2855 -366L 4295 -366L 4295 658L 2855 658L 2855 -366Z" fill="#FFFFFF"/>
<mask id="mask1_alpha" mask-type="alpha">
<path d="M 3812 -366L 4293 -366L 4293 658L 3812 658L 3812 -366Z" fill="#FFFFFF"/>
</mask>
<g id="content" mask="url(#mask1_alpha)" filter="url(#filter0_d)" figma:type="frame">
<path d="M 3812 -366L 4293 -366L 4293 658L 3812 658L 3812 -366Z" fill="#FFFFFF"/>
<g id="menu-bg" figma:type="rounded-rectangle">
<use xlink:href="#path0_fill" transform="translate(3815 610)" fill="#FAFAFA"/>
</g>
<g id="sound-sett" figma:type="frame">
<g id="menu-popup" filter="url(#filter1_d)" figma:type="frame">
<g id="Rectangle 5" figma:type="vector">
<use xlink:href="#path1_fill" transform="translate(4042 532)" fill="#F8F8F8"/>
</g>
<g id="Vector 4" figma:type="vector">
<use xlink:href="#path2_fill" transform="matrix(-1 0 0 1 4069.22 601.817)" fill="#F8F8F8"/>
</g>
</g>
</g>
</g>
<mask id="mask2_alpha" mask-type="alpha">
<path d="M 3812 -366L 4293 -366L 4293 658L 3812 658L 3812 -366Z" fill="#FFFFFF"/>
</mask>
<g id="content" mask="url(#mask2_alpha)" filter="url(#filter2_d)" figma:type="frame">
<path d="M 3812 -366L 4293 -366L 4293 658L 3812 658L 3812 -366Z" fill="#FFFFFF"/>
<g id="menu-bg" figma:type="rounded-rectangle">
<use xlink:href="#path0_fill" transform="translate(3815 610)" fill="#FAFAFA"/>
</g>
<g id="sound-sett" figma:type="frame">
<g id="menu-popup" filter="url(#filter3_d)" figma:type="frame">
<g id="Rectangle 5" figma:type="vector">
<use xlink:href="#path1_fill" transform="translate(4042 532)" fill="#F8F8F8"/>
</g>
<g id="Vector 4" figma:type="vector">
<use xlink:href="#path2_fill" transform="matrix(-1 0 0 1 4069.22 601.817)" fill="#F8F8F8"/>
</g>
</g>
</g>
</g>
<mask id="mask3_alpha" mask-type="alpha">
<path d="M 3812 -366L 4293 -366L 4293 658L 3812 658L 3812 -366Z" fill="#FFFFFF"/>
</mask>
<g id="content" mask="url(#mask3_alpha)" filter="url(#filter4_d)" figma:type="frame">
<path d="M 3812 -366L 4293 -366L 4293 658L 3812 658L 3812 -366Z" fill="#FFFFFF"/>
<g id="menu-bg" figma:type="rounded-rectangle">
<use xlink:href="#path0_fill" transform="translate(3815 610)" fill="#FAFAFA"/>
</g>
<g id="sound-sett" figma:type="frame">
<g id="menu-popup" filter="url(#filter5_d)" figma:type="frame">
<g id="Rectangle 5" figma:type="vector">
<use xlink:href="#path1_fill" transform="translate(4042 532)" fill="#F8F8F8"/>
</g>
<g id="Vector 4" figma:type="vector">
<use xlink:href="#path2_fill" transform="matrix(-1 0 0 1 4069.22 601.817)" fill="#F8F8F8"/>
</g>
</g>
</g>
</g>
</g>
</g>
<defs>
<filter id="filter0_d" filterUnits="userSpaceOnUse" x="3812" y="-366" width="481" height="1024" color-interpolation-filters="sRGB">
<feFlood flood-opacity="0" result="BackgroundImageFix"/>
<desc>type="dropShadow" x="5" y="5" size="4" spread="0" color="0,0,0,0.25" blend="normal"</desc>
<feColorMatrix in="SourceAlpha" type="matrix" values="0 0 0 0 0 0 0 0 0 0 0 0 0 0 0 0 0 0 255 0"/>
<feOffset dx="5" dy="5"/>
<feGaussianBlur stdDeviation="2"/>
<feColorMatrix type="matrix" values="0 0 0 0 0 0 0 0 0 0 0 0 0 0 0 0 0 0 0.25 0"/>
<feBlend mode="normal" in2="BackgroundImageFix" result="effect1_dropShadow"/>
<feBlend mode="normal" in="SourceGraphic" in2="effect1_dropShadow" result="shape"/>
</filter>
<filter id="filter1_d" filterUnits="userSpaceOnUse" x="4038" y="532" width="140" height="100" color-interpolation-filters="sRGB">
<feFlood flood-opacity="0" result="BackgroundImageFix"/>
<desc>type="dropShadow" x="0" y="4" size="4" spread="0" color="0,0,0,0.25" blend="normal"</desc>
<feColorMatrix in="SourceAlpha" type="matrix" values="0 0 0 0 0 0 0 0 0 0 0 0 0 0 0 0 0 0 255 0"/>
<feOffset dx="0" dy="4"/>
<feGaussianBlur stdDeviation="2"/>
<feColorMatrix type="matrix" values="0 0 0 0 0 0 0 0 0 0 0 0 0 0 0 0 0 0 0.25 0"/>
<feBlend mode="normal" in2="BackgroundImageFix" result="effect1_dropShadow"/>
<feBlend mode="normal" in="SourceGraphic" in2="effect1_dropShadow" result="shape"/>
</filter>
<filter id="filter2_d" filterUnits="userSpaceOnUse" x="3812" y="-366" width="481" height="1024" color-interpolation-filters="sRGB">
<feFlood flood-opacity="0" result="BackgroundImageFix"/>
<desc>type="dropShadow" x="5" y="5" size="4" spread="0" color="0,0,0,0.25" blend="normal"</desc>
<feColorMatrix in="SourceAlpha" type="matrix" values="0 0 0 0 0 0 0 0 0 0 0 0 0 0 0 0 0 0 255 0"/>
<feOffset dx="5" dy="5"/>
<feGaussianBlur stdDeviation="2"/>
<feColorMatrix type="matrix" values="0 0 0 0 0 0 0 0 0 0 0 0 0 0 0 0 0 0 0.25 0"/>
<feBlend mode="normal" in2="BackgroundImageFix" result="effect1_dropShadow"/>
<feBlend mode="normal" in="SourceGraphic" in2="effect1_dropShadow" result="shape"/>
</filter>
<filter id="filter3_d" filterUnits="userSpaceOnUse" x="4038" y="532" width="140" height="100" color-interpolation-filters="sRGB">
<feFlood flood-opacity="0" result="BackgroundImageFix"/>
<desc>type="dropShadow" x="0" y="4" size="4" spread="0" color="0,0,0,0.25" blend="normal"</desc>
<feColorMatrix in="SourceAlpha" type="matrix" values="0 0 0 0 0 0 0 0 0 0 0 0 0 0 0 0 0 0 255 0"/>
<feOffset dx="0" dy="4"/>
<feGaussianBlur stdDeviation="2"/>
<feColorMatrix type="matrix" values="0 0 0 0 0 0 0 0 0 0 0 0 0 0 0 0 0 0 0.25 0"/>
<feBlend mode="normal" in2="BackgroundImageFix" result="effect1_dropShadow"/>
<feBlend mode="normal" in="SourceGraphic" in2="effect1_dropShadow" result="shape"/>
</filter>
<filter id="filter4_d" filterUnits="userSpaceOnUse" x="3812" y="-366" width="481" height="1024" color-interpolation-filters="sRGB">
<feFlood flood-opacity="0" result="BackgroundImageFix"/>
<desc>type="dropShadow" x="5" y="5" size="4" spread="0" color="0,0,0,0.25" blend="normal"</desc>
<feColorMatrix in="SourceAlpha" type="matrix" values="0 0 0 0 0 0 0 0 0 0 0 0 0 0 0 0 0 0 255 0"/>
<feOffset dx="5" dy="5"/>
<feGaussianBlur stdDeviation="2"/>
<feColorMatrix type="matrix" values="0 0 0 0 0 0 0 0 0 0 0 0 0 0 0 0 0 0 0.25 0"/>
<feBlend mode="normal" in2="BackgroundImageFix" result="effect1_dropShadow"/>
<feBlend mode="normal" in="SourceGraphic" in2="effect1_dropShadow" result="shape"/>
</filter>
<filter id="filter5_d" filterUnits="userSpaceOnUse" x="4038" y="532" width="140" height="100" color-interpolation-filters="sRGB">
<feFlood flood-opacity="0" result="BackgroundImageFix"/>
<desc>type="dropShadow" x="0" y="4" size="4" spread="0" color="0,0,0,0.25" blend="normal"</desc>
<feColorMatrix in="SourceAlpha" type="matrix" values="0 0 0 0 0 0 0 0 0 0 0 0 0 0 0 0 0 0 255 0"/>
<feOffset dx="0" dy="4"/>
<feGaussianBlur stdDeviation="2"/>
<feColorMatrix type="matrix" values="0 0 0 0 0 0 0 0 0 0 0 0 0 0 0 0 0 0 0.25 0"/>
<feBlend mode="normal" in2="BackgroundImageFix" result="effect1_dropShadow"/>
<feBlend mode="normal" in="SourceGraphic" in2="effect1_dropShadow" result="shape"/>
</filter>
<path id="path0_fill" d="M 0 0L 478 0L 478 48L 0 48L 0 0Z"/>
<path id="path1_fill" d="M 0 8C 0 3.58172 3.58172 0 8 0L 124 0C 128.418 0 132 3.58172 132 8L 132 66.9277C 132 71.346 128.418 74.9277 124 74.9277L 7.84615 74.9277L 7.84615 74.9277C 3.51284 74.9277 0 71.4148 0 67.0815L 0 8Z"/>
<path id="path2_fill" d="M 9.5 19.435C 2.7 15.0275 0.333333 8.04893 0 5.11059C 6.33333 1.25402 17.5 -4.14518 11.5 5.11059C 4 16.6803 18 24.9444 9.5 19.435Z"/>
</defs>
</svg>
