<svg width="18" height="18" viewBox="0 0 18 18" version="1.1" xmlns="http://www.w3.org/2000/svg" xmlns:xlink="http://www.w3.org/1999/xlink">
<title>sound-icon</title>
<desc>Created using Figma</desc>
<g id="Canvas" transform="matrix(1.5 0 0 1.5 -5860.5 -1276.5)">
<g id="sound-icon">
<g id="Ellipse">
<use xlink:href="#path0_stroke" transform="matrix(-1 -1.22465e-16 1.22465e-16 -1 3917.5 862)"/>
</g>
<g id="Vector 3">
<use xlink:href="#path1_stroke" transform="matrix(-1 -1.22465e-16 1.22465e-16 -1 3918 863)"/>
</g>
<g id="Rectangle 4">
<use xlink:href="#path2_fill" transform="matrix(-1 -1.22465e-16 1.22465e-16 -1 3916 858)"/>
</g>
</g>
</g>
<defs>
<path id="path0_stroke" d="M 3 5C 3 6.31065 2.69251 7.45723 2.16148 8.25958C 1.63919 9.0487 0.909712 9.5 0 9.5L 0 10.5C 1.29943 10.5 2.31994 9.83201 2.99538 8.81149C 3.66206 7.80419 4 6.45077 4 5L 3 5ZM 0 0.5C 0.909712 0.5 1.63919 0.951301 2.16148 1.74042C 2.69251 2.54277 3 3.68935 3 5L 4 5C 4 3.54923 3.66206 2.19581 2.99538 1.18851C 2.31994 0.167987 1.29943 -0.5 0 -0.5L 0 0.5Z"/>
<path id="path1_stroke" d="M 6.76943 8.13176L 6.52136 7.69764L 6.76943 8.13176ZM 1.49614 11.1451L 1.24807 10.7109L 1.49614 11.1451ZM 6.76943 3.86824L 7.0175 3.43412L 6.76943 3.86824ZM -0.5 1.72318L -0.5 10.2768L 0.5 10.2768L 0.5 1.72318L -0.5 1.72318ZM 1.74421 11.5792L 7.0175 8.56588L 6.52136 7.69764L 1.24807 10.7109L 1.74421 11.5792ZM 7.26556 8.5L 9 8.5L 9 7.5L 7.26556 7.5L 7.26556 8.5ZM 10.5 7L 10.5 5L 9.5 5L 9.5 7L 10.5 7ZM 9 3.5L 7.26556 3.5L 7.26556 4.5L 9 4.5L 9 3.5ZM 7.0175 3.43412L 1.74421 0.420815L 1.24807 1.28906L 6.52136 4.30236L 7.0175 3.43412ZM 0.5 1.72318C 0.5 1.33927 0.914741 1.09858 1.24807 1.28906L 1.74421 0.420815C 0.744223 -0.150605 -0.5 0.571446 -0.5 1.72318L 0.5 1.72318ZM -0.5 10.2768C -0.5 11.4286 0.744223 12.1506 1.74421 11.5792L 1.24807 10.7109C 0.914741 10.9014 0.5 10.6607 0.5 10.2768L -0.5 10.2768ZM 7.0175 8.56588C 7.11032 8.50799 7.15625 8.49579 7.26556 8.5L 7.26556 7.5C 7.02683 7.50421 6.73073 7.58284 6.52136 7.69764L 7.0175 8.56588ZM 9 8.5C 9.82843 8.5 10.5 7.82843 10.5 7L 9.5 7C 9.5 7.27614 9.27614 7.5 9 7.5L 9 8.5ZM 10.5 5C 10.5 4.17157 9.82843 3.5 9 3.5L 9 4.5C 9.27614 4.5 9.5 4.72386 9.5 5L 10.5 5ZM 7.26556 3.5C 7.15625 3.50421 7.11032 3.49201 7.0175 3.43412L 6.52136 4.30236C 6.73073 4.41716 7.02683 4.49579 7.26556 4.5L 7.26556 3.5Z"/>
<path id="path2_fill" d="M 0 1C 0 0.447715 0.447715 0 1 0L 2 0L 2 2L 1 2C 0.447715 2 0 1.55228 0 1Z"/>
</defs>
</svg>
